# xmcd
#
# Track frame offsets:
#	150
#	22984
#	46213
#	73326
#	104003
#	128262
#	162427
#	183478
#	215082
#	235070
#	266011
#	294420
#
# Disc length: 4237 seconds
#
# Revision: 1
# Processed by: cddbd v1.5.1PL2 Copyright (c) Steve Scherf et al.
# Submitted via: audiograbber 1.83.01
#
DISCID=af108b0c
DTITLE=Shahrukh Khan - Many moods of ...
DYEAR=2006
DGENRE=National Folk
TTITLE0=Tujhe dekha to
TTITLE1=Main koi aisa geet gaoon
TTITLE2=Hamesha tumko chaha
TTITLE3=Chori chori chal o gori
TTITLE4=Bairi piya
TTITLE5=Ram Jaane
TTITLE6=Jadu teri nazar
TTITLE7=Mere Mehboob
TTITLE8=Apun Bola
TTITLE9=Chaiya chaiya
TTITLE10=Phenk hawa mein ek chumma
TTITLE11=Chalak chalak
EXTD=
EXTT0=
EXTT1=
EXTT2=
EXTT3=
EXTT4=
EXTT5=
EXTT6=
EXTT7=
EXTT8=
EXTT9=
EXTT10=
EXTT11=
PLAYORDER=
